<svg xmlns="http://www.w3.org/2000/svg" xmlns:xlink="http://www.w3.org/1999/xlink" width="500" zoomAndPan="magnify" viewBox="0 0 375 374.999991" height="500" preserveAspectRatio="xMidYMid meet" version="1.0"><defs><g/><clipPath id="id1"><path d="M 110 137 L 296 137 L 296 190 L 110 190 Z M 110 137 " clip-rule="nonzero"/></clipPath><clipPath id="id2"><path d="M 108.695312 145.90625 L 296.292969 130.25 L 300.347656 178.832031 L 112.75 194.488281 Z M 108.695312 145.90625 " clip-rule="nonzero"/></clipPath><clipPath id="id3"><path d="M 296.492188 130.234375 L 108.894531 145.890625 L 112.949219 194.472656 L 300.546875 178.8125 Z M 296.492188 130.234375 " clip-rule="nonzero"/></clipPath><clipPath id="id4"><path d="M 81 147 L 101 147 L 101 153 L 81 153 Z M 81 147 " clip-rule="nonzero"/></clipPath><clipPath id="id5"><path d="M 104.636719 124.796875 L 108.664062 159.058594 L 82.59375 162.125 L 78.566406 127.859375 Z M 104.636719 124.796875 " clip-rule="nonzero"/></clipPath><clipPath id="id6"><path d="M 104.636719 124.796875 L 108.664062 159.058594 L 82.59375 162.125 L 78.566406 127.859375 Z M 104.636719 124.796875 " clip-rule="nonzero"/></clipPath><clipPath id="id7"><path d="M 81 138 L 100 138 L 100 146 L 81 146 Z M 81 138 " clip-rule="nonzero"/></clipPath><clipPath id="id8"><path d="M 104.636719 124.796875 L 108.664062 159.058594 L 82.59375 162.125 L 78.566406 127.859375 Z M 104.636719 124.796875 " clip-rule="nonzero"/></clipPath><clipPath id="id9"><path d="M 104.636719 124.796875 L 108.664062 159.058594 L 82.59375 162.125 L 78.566406 127.859375 Z M 104.636719 124.796875 " clip-rule="nonzero"/></clipPath><clipPath id="id10"><path d="M 100 125 L 106 125 L 106 145 L 100 145 Z M 100 125 " clip-rule="nonzero"/></clipPath><clipPath id="id11"><path d="M 104.636719 124.796875 L 108.664062 159.058594 L 82.59375 162.125 L 78.566406 127.859375 Z M 104.636719 124.796875 " clip-rule="nonzero"/></clipPath><clipPath id="id12"><path d="M 104.636719 124.796875 L 108.664062 159.058594 L 82.59375 162.125 L 78.566406 127.859375 Z M 104.636719 124.796875 " clip-rule="nonzero"/></clipPath><clipPath id="id13"><path d="M 89 128 L 102 128 L 102 143 L 89 143 Z M 89 128 " clip-rule="nonzero"/></clipPath><clipPath id="id14"><path d="M 104.636719 124.796875 L 108.664062 159.058594 L 82.59375 162.125 L 78.566406 127.859375 Z M 104.636719 124.796875 " clip-rule="nonzero"/></clipPath><clipPath id="id15"><path d="M 104.636719 124.796875 L 108.664062 159.058594 L 82.59375 162.125 L 78.566406 127.859375 Z M 104.636719 124.796875 " clip-rule="nonzero"/></clipPath><clipPath id="id16"><path d="M 83 152 L 98 152 L 98 162 L 83 162 Z M 83 152 " clip-rule="nonzero"/></clipPath><clipPath id="id17"><path d="M 104.636719 124.796875 L 108.664062 159.058594 L 82.59375 162.125 L 78.566406 127.859375 Z M 104.636719 124.796875 " clip-rule="nonzero"/></clipPath><clipPath id="id18"><path d="M 104.636719 124.796875 L 108.664062 159.058594 L 82.59375 162.125 L 78.566406 127.859375 Z M 104.636719 124.796875 " clip-rule="nonzero"/></clipPath></defs><g clip-path="url(#id1)"><g clip-path="url(#id2)"><g clip-path="url(#id3)"><path fill="#ffffff" d="M 114.800781 165.195312 C 115.378906 165.753906 116.03125 166.253906 116.722656 166.710938 C 118.117188 167.621094 119.679688 168.378906 121.328125 169.035156 C 126.675781 171.171875 132.425781 172.273438 138.113281 173.046875 C 139.703125 173.265625 141.296875 173.449219 142.894531 173.605469 C 146.40625 173.949219 149.707031 174.136719 152.554688 174.238281 C 160.742188 174.519531 168.960938 174.289062 177.121094 173.527344 C 185.941406 172.703125 194.867188 171.316406 203.320312 168.542969 C 206.136719 167.621094 208.925781 166.539062 211.519531 165.097656 C 212.863281 164.351562 214.171875 163.507812 215.300781 162.464844 C 216.144531 161.6875 217.019531 160.789062 217.441406 159.703125 C 217.664062 159.128906 217.820312 158.398438 217.792969 157.777344 C 217.78125 157.691406 217.769531 157.613281 217.753906 157.554688 C 217.726562 157.4375 217.699219 157.378906 217.667969 157.378906 C 217.640625 157.378906 217.609375 157.441406 217.582031 157.554688 C 217.566406 157.609375 217.550781 157.679688 217.535156 157.761719 C 217.300781 158.902344 216.742188 159.921875 215.957031 160.765625 C 215.1875 161.589844 214.300781 162.261719 213.335938 162.835938 C 212.816406 163.148438 212.285156 163.445312 211.746094 163.726562 C 208.9375 165.210938 205.9375 166.300781 202.898438 167.214844 C 193.820312 169.949219 184.292969 171.285156 174.859375 172.019531 C 172.179688 172.226562 169.496094 172.375 166.808594 172.476562 C 164.375 172.5625 161.9375 172.609375 159.503906 172.621094 C 157.808594 172.625 155.4375 172.613281 152.617188 172.519531 C 149.796875 172.429688 146.53125 172.253906 143.058594 171.933594 C 137.480469 171.417969 131.90625 170.625 126.484375 169.199219 C 124.914062 168.785156 123.355469 168.308594 121.832031 167.742188 C 120.226562 167.144531 118.71875 166.460938 117.398438 165.65625 C 116.738281 165.253906 116.128906 164.816406 115.597656 164.339844 C 114.476562 163.339844 113.625 161.792969 113.769531 160.265625 C 113.953125 158.394531 115.40625 156.992188 116.699219 155.769531 C 117.015625 155.46875 117.171875 155.289062 117.136719 155.242188 C 117.101562 155.191406 116.882812 155.277344 116.5 155.496094 C 116.382812 155.566406 116.246094 155.652344 116.101562 155.75 C 116.007812 155.8125 115.914062 155.875 115.8125 155.949219 C 114.730469 156.742188 113.671875 157.824219 113.132812 159.09375 C 112.964844 159.492188 112.84375 159.914062 112.792969 160.347656 C 112.585938 162.089844 113.558594 164.003906 114.800781 165.195312 Z M 115.457031 169.890625 C 116.722656 173.433594 119.1875 176.429688 122.117188 178.738281 C 122.910156 179.363281 123.742188 179.953125 124.589844 180.503906 C 125.464844 181.070312 126.363281 181.601562 127.273438 182.113281 C 134.886719 186.371094 144.445312 187.09375 153.003906 187.472656 C 153.066406 187.476562 153.125 187.480469 153.1875 187.480469 C 155.496094 187.582031 157.808594 187.605469 160.117188 187.574219 C 162.152344 187.542969 164.183594 187.457031 166.207031 187.3125 C 166.800781 187.269531 167.394531 187.21875 167.984375 187.167969 C 173.410156 186.679688 178.804688 185.925781 184.175781 185.019531 C 186.742188 184.589844 189.117188 184.105469 191.136719 183.628906 C 193.15625 183.15625 194.816406 182.675781 195.972656 182.3125 C 197.121094 181.933594 197.761719 181.675781 197.738281 181.59375 C 197.714844 181.507812 197.035156 181.625 195.855469 181.878906 C 194.234375 182.226562 192.605469 182.5625 190.976562 182.871094 C 186.011719 183.820312 180.996094 184.515625 175.980469 185.128906 C 170.925781 185.753906 165.800781 186.179688 160.710938 186.324219 C 157.320312 186.421875 153.976562 186.363281 150.59375 186.105469 C 147.25 185.847656 143.933594 185.609375 140.613281 185.125 C 137.300781 184.644531 133.988281 183.78125 130.851562 182.585938 C 127.417969 181.273438 124.042969 179.285156 121.261719 176.878906 C 120.492188 176.210938 119.761719 175.492188 119.089844 174.726562 C 117.699219 173.148438 116.617188 171.351562 115.636719 169.5 C 115.484375 169.214844 115.386719 169.070312 115.34375 169.085938 C 115.226562 169.128906 115.304688 169.464844 115.457031 169.890625 Z M 135.773438 163.59375 C 135.847656 163.769531 137.816406 163.019531 140.839844 162.140625 C 143.855469 161.234375 147.9375 160.226562 152.089844 159.480469 C 158.257812 158.375 164.488281 157.792969 170.753906 157.613281 C 171.714844 157.582031 173.066406 157.566406 174.667969 157.578125 C 176.269531 157.589844 178.128906 157.640625 180.109375 157.761719 C 182.085938 157.878906 184.1875 158.070312 186.277344 158.335938 C 190.078125 158.832031 193.886719 159.558594 197.539062 160.753906 C 199.085938 161.253906 200.566406 161.910156 202.09375 162.464844 C 202.328125 162.550781 202.460938 162.578125 202.480469 162.542969 C 202.503906 162.503906 202.40625 162.40625 202.210938 162.253906 C 200.910156 161.269531 199.304688 160.617188 197.800781 160.027344 C 192.214844 157.839844 186.140625 156.96875 180.1875 156.5625 C 178.183594 156.425781 176.304688 156.367188 174.683594 156.351562 C 173.0625 156.335938 171.699219 156.355469 170.726562 156.382812 C 166.496094 156.488281 162.257812 156.789062 158.0625 157.355469 C 156.074219 157.625 153.964844 157.960938 151.875 158.371094 C 146.847656 159.355469 141.667969 160.601562 137.035156 162.84375 C 136.203125 163.25 135.742188 163.515625 135.773438 163.59375 Z M 215.683594 153.597656 C 215.660156 153.5625 215.628906 153.519531 215.589844 153.472656 C 215.550781 153.421875 215.503906 153.367188 215.445312 153.308594 C 215.214844 153.058594 214.859375 152.730469 214.367188 152.351562 C 213.984375 152.058594 213.519531 151.742188 212.984375 151.417969 C 212.828125 151.324219 212.667969 151.230469 212.5 151.132812 C 211.753906 150.710938 210.882812 150.285156 209.914062 149.867188 C 202.410156 146.628906 193.957031 145.539062 185.875 144.859375 C 183.804688 144.6875 181.734375 144.5625 179.660156 144.472656 C 173.011719 144.179688 166.335938 144.246094 159.695312 144.652344 C 157.835938 144.769531 155.980469 144.914062 154.125 145.089844 C 149.902344 145.484375 145.671875 146.015625 141.503906 146.796875 C 140.863281 146.917969 140.230469 147.03125 139.613281 147.152344 C 137.425781 147.589844 135.21875 148.058594 133.050781 148.648438 C 131.914062 148.960938 130.785156 149.300781 129.679688 149.695312 C 128.535156 150.101562 127.894531 150.371094 127.917969 150.453125 C 127.945312 150.535156 128.628906 150.410156 129.804688 150.125 C 133.101562 149.332031 136.445312 148.660156 139.789062 148.082031 C 140.402344 147.976562 141.03125 147.878906 141.671875 147.777344 C 146.871094 146.917969 152.136719 146.378906 157.394531 146.019531 C 158.925781 145.914062 160.460938 145.824219 162 145.753906 C 166.707031 145.527344 171.421875 145.480469 176.132812 145.585938 C 177.292969 145.613281 178.449219 145.648438 179.605469 145.695312 C 185.765625 145.941406 191.933594 146.503906 198.007812 147.574219 C 201.941406 148.265625 205.882812 149.164062 209.625 150.582031 C 210.589844 150.949219 211.457031 151.320312 212.210938 151.683594 C 212.960938 152.050781 213.601562 152.40625 214.113281 152.71875 C 215.140625 153.34375 215.671875 153.800781 215.734375 153.730469 C 215.75 153.714844 215.730469 153.667969 215.683594 153.597656 Z M 223.140625 154.746094 C 223.433594 154.664062 223.722656 154.578125 224.015625 154.496094 C 232.417969 152.125 240.691406 149.320312 249.128906 147.050781 C 251.578125 146.390625 254.035156 145.761719 256.503906 145.171875 C 259.300781 144.503906 262.113281 143.886719 264.9375 143.34375 C 267.824219 142.792969 270.726562 142.304688 273.640625 141.910156 C 276.386719 141.539062 279.140625 141.246094 281.902344 141.054688 C 284.300781 140.886719 286.707031 140.808594 289.109375 140.839844 C 290.066406 140.851562 290.613281 140.867188 290.628906 140.785156 C 290.632812 140.761719 290.605469 140.738281 290.539062 140.707031 C 290.476562 140.675781 290.378906 140.644531 290.253906 140.609375 C 290 140.535156 289.628906 140.464844 289.148438 140.390625 C 288.191406 140.25 286.816406 140.140625 285.160156 140.109375 C 283.511719 140.074219 281.582031 140.121094 279.519531 140.253906 C 276.667969 140.4375 273.832031 140.75 271.011719 141.160156 C 266.410156 141.824219 261.84375 142.742188 257.3125 143.777344 C 249.933594 145.464844 242.613281 147.429688 235.425781 149.816406 C 231.246094 151.199219 227.039062 152.589844 222.992188 154.324219 C 222.109375 154.703125 221.621094 154.953125 221.648438 155.035156 C 221.679688 155.113281 222.21875 155.003906 223.140625 154.746094 Z M 111.070312 158.773438 C 114.742188 150.351562 134.121094 143.832031 164.875 142.761719 C 191.6875 141.824219 214.269531 146.703125 219.828125 154.058594 L 219.828125 154.050781 C 244.546875 143.539062 287.34375 134.277344 292.382812 137.863281 C 297.425781 141.449219 294.996094 148.890625 294.996094 148.890625 C 294.996094 148.890625 294.667969 150.8125 288.6875 151.3125 C 282.707031 151.8125 234.289062 151.386719 220.703125 160.320312 C 219.769531 164.425781 216.746094 174.6875 209.050781 179.761719 C 197.523438 187.359375 171.839844 189.050781 167.960938 189.375 L 167.960938 189.382812 C 164.066406 189.503906 138.359375 190.78125 126.03125 184.558594 C 115.605469 179.296875 111.234375 164.917969 111.234375 164.917969 C 110.476562 162.421875 110.128906 160.921875 111.070312 158.773438 " fill-opacity="1" fill-rule="nonzero"/></g></g></g><g clip-path="url(#id4)"><g clip-path="url(#id5)"><g clip-path="url(#id6)"><path fill="#ffffff" d="M 82.523438 152.542969 C 81.6875 152.058594 81.367188 150.851562 81.808594 150.21875 C 82.167969 149.621094 82.644531 149.144531 83.242188 148.785156 C 83.839844 148.429688 84.484375 148.238281 85.179688 148.207031 C 86.761719 148.195312 88.339844 148.105469 89.914062 147.933594 C 90.214844 147.902344 90.515625 147.898438 90.820312 147.925781 C 92.546875 148.035156 94.277344 148.160156 96.011719 148.203125 C 97.453125 148.253906 98.859375 148.492188 100.234375 148.921875 C 100.339844 148.96875 100.429688 149.035156 100.507812 149.117188 C 100.585938 149.203125 100.640625 149.300781 100.675781 149.410156 C 100.707031 149.519531 100.71875 149.632812 100.703125 149.746094 C 100.6875 149.863281 100.652344 149.96875 100.589844 150.0625 C 100.417969 150.3125 100.214844 150.527344 99.976562 150.710938 C 99.332031 151.144531 98.625 151.371094 97.847656 151.390625 C 96.042969 151.496094 94.234375 151.59375 92.429688 151.710938 C 90.398438 151.84375 88.363281 151.960938 86.335938 152.148438 C 85.363281 152.238281 84.40625 152.496094 83.4375 152.621094 C 83.128906 152.636719 82.824219 152.609375 82.523438 152.542969 Z M 82.523438 152.542969 " fill-opacity="1" fill-rule="nonzero"/></g></g></g><g clip-path="url(#id7)"><g clip-path="url(#id8)"><g clip-path="url(#id9)"><path fill="#ffffff" d="M 99.164062 144.0625 C 99.417969 144.257812 99.566406 144.328125 99.644531 144.449219 C 99.734375 144.574219 99.769531 144.710938 99.757812 144.863281 C 99.71875 145.011719 99.632812 145.125 99.503906 145.203125 C 99.078125 145.410156 98.640625 145.453125 98.183594 145.324219 C 97.59375 145.160156 97 145.144531 96.402344 145.277344 C 95.875 145.398438 95.355469 145.363281 94.847656 145.179688 C 94.054688 144.925781 93.246094 144.773438 92.421875 144.71875 C 91.527344 144.621094 90.660156 144.324219 89.769531 144.199219 C 87.226562 143.839844 84.792969 143.027344 82.300781 142.46875 C 82.128906 142.445312 81.96875 142.386719 81.820312 142.300781 C 81.671875 142.214844 81.542969 142.101562 81.433594 141.96875 C 81.328125 141.832031 81.246094 141.679688 81.195312 141.515625 C 81.144531 141.351562 81.121094 141.179688 81.132812 141.007812 C 81.117188 140.707031 81.140625 140.40625 81.207031 140.113281 C 81.300781 139.714844 81.527344 139.429688 81.894531 139.253906 C 82.730469 138.835938 83.605469 138.714844 84.523438 138.886719 C 85.335938 139.039062 86.15625 139.140625 86.964844 139.289062 C 87.410156 139.371094 87.84375 139.484375 88.269531 139.632812 C 89.335938 140.011719 90.394531 140.394531 91.441406 140.816406 C 92.136719 141.09375 92.816406 141.417969 93.488281 141.757812 C 94.742188 142.457031 96.066406 142.984375 97.457031 143.332031 C 98.054688 143.511719 98.621094 143.753906 99.164062 144.0625 Z M 99.164062 144.0625 " fill-opacity="1" fill-rule="nonzero"/></g></g></g><g clip-path="url(#id10)"><g clip-path="url(#id11)"><g clip-path="url(#id12)"><path fill="#ffffff" d="M 102.988281 125.355469 C 103.203125 125.554688 103.390625 125.773438 103.554688 126.019531 C 103.933594 126.675781 104.238281 127.367188 104.46875 128.09375 C 104.730469 129.121094 104.953125 130.15625 105.289062 131.164062 C 105.363281 131.386719 105.386719 131.609375 105.363281 131.84375 C 105.324219 133.058594 105.410156 134.265625 105.632812 135.464844 C 105.746094 136.59375 105.769531 137.734375 105.8125 138.871094 C 105.84375 139.703125 105.804688 140.542969 105.851562 141.371094 C 105.875 142.363281 105.738281 143.332031 105.433594 144.28125 C 105.375 144.417969 105.292969 144.542969 105.1875 144.652344 C 105.078125 144.761719 104.949219 144.828125 104.796875 144.855469 C 104.644531 144.878906 104.5 144.859375 104.363281 144.789062 C 103.800781 144.269531 103.363281 143.664062 103.042969 142.96875 C 102.988281 142.824219 102.972656 142.675781 102.988281 142.523438 C 102.988281 142.371094 103.015625 142.222656 103.070312 142.078125 C 103.71875 140.503906 103.363281 138.9375 102.980469 137.390625 C 102.183594 134.148438 101.359375 130.914062 100.550781 127.675781 C 100.5 127.453125 100.46875 127.226562 100.453125 127 C 100.445312 126.75 100.484375 126.511719 100.574219 126.277344 C 100.664062 126.046875 100.796875 125.84375 100.972656 125.667969 C 101.148438 125.492188 101.351562 125.363281 101.582031 125.273438 C 101.8125 125.183594 102.050781 125.144531 102.300781 125.15625 C 102.535156 125.199219 102.765625 125.265625 102.988281 125.355469 Z M 102.988281 125.355469 " fill-opacity="1" fill-rule="nonzero"/></g></g></g><g clip-path="url(#id13)"><g clip-path="url(#id14)"><g clip-path="url(#id15)"><path fill="#ffffff" d="M 100.550781 141.972656 C 99.863281 141.722656 99.273438 141.324219 98.785156 140.78125 C 97.980469 139.984375 97.132812 139.230469 96.25 138.523438 C 95.429688 137.851562 94.695312 137.101562 94.039062 136.265625 C 92.984375 134.976562 91.828125 133.78125 90.695312 132.566406 C 90.328125 132.1875 89.996094 131.773438 89.710938 131.328125 C 89.515625 131 89.394531 130.644531 89.34375 130.265625 C 89.273438 129.921875 89.3125 129.585938 89.457031 129.265625 C 89.605469 128.941406 89.828125 128.695312 90.132812 128.519531 C 90.390625 128.347656 90.675781 128.261719 90.988281 128.261719 C 91.300781 128.261719 91.585938 128.347656 91.84375 128.519531 C 92.175781 128.707031 92.476562 128.929688 92.75 129.191406 C 94.542969 130.9375 96.164062 132.828125 97.621094 134.863281 C 98.050781 135.480469 98.53125 136.066406 99.015625 136.644531 C 100.222656 138.121094 101.171875 139.746094 101.867188 141.523438 C 101.921875 141.742188 101.9375 141.964844 101.917969 142.191406 C 101.925781 142.375 101.574219 142.59375 101.414062 142.5 C 101.089844 142.3125 100.773438 142.109375 100.550781 141.972656 Z M 100.550781 141.972656 " fill-opacity="1" fill-rule="nonzero"/></g></g></g><g clip-path="url(#id16)"><g clip-path="url(#id17)"><g clip-path="url(#id18)"><path fill="#ffffff" d="M 97.34375 153.824219 C 97.019531 154.449219 96.539062 154.910156 95.902344 155.210938 C 94.292969 156.035156 92.769531 156.992188 91.332031 158.09375 C 89.570312 159.390625 87.691406 160.488281 85.699219 161.390625 C 85.355469 161.542969 85.007812 161.683594 84.652344 161.800781 C 84.507812 161.847656 84.359375 161.863281 84.207031 161.847656 C 84.058594 161.832031 83.914062 161.785156 83.78125 161.710938 C 83.648438 161.636719 83.535156 161.539062 83.441406 161.421875 C 83.347656 161.300781 83.28125 161.167969 83.238281 161.019531 C 83.125 160.753906 83.058594 160.480469 83.039062 160.195312 C 83.019531 159.910156 83.046875 159.628906 83.121094 159.351562 C 83.195312 159.074219 83.3125 158.816406 83.472656 158.582031 C 83.632812 158.34375 83.828125 158.140625 84.058594 157.972656 C 84.582031 157.535156 85.15625 157.191406 85.789062 156.941406 C 86.910156 156.496094 87.96875 155.933594 88.96875 155.261719 C 91.230469 153.84375 93.683594 152.953125 96.328125 152.589844 C 96.550781 152.566406 96.773438 152.558594 97 152.5625 C 97.089844 152.578125 97.175781 152.613281 97.253906 152.664062 C 97.332031 152.71875 97.398438 152.785156 97.445312 152.863281 C 97.492188 152.945312 97.523438 153.035156 97.53125 153.128906 C 97.542969 153.222656 97.53125 153.3125 97.5 153.402344 Z M 97.34375 153.824219 " fill-opacity="1" fill-rule="nonzero"/></g></g></g><g fill="#ffffff" fill-opacity="1"><g transform="translate(87.870994, 221.144357)"><g><path d="M 18.453125 -2.6875 L 18.453125 0.03125 L 3.65625 0.03125 L 2.265625 -1.828125 L 2.265625 -22.390625 L 3.8125 -24.65625 L 16.359375 -24.65625 L 16.359375 -22.390625 L 4.984375 -22.390625 L 4.984375 -13.671875 L 17.140625 -13.671875 L 17.140625 -11.5625 L 4.828125 -11.5625 L 4.828125 -2.6875 Z M 18.453125 -2.6875 "/></g></g></g><g fill="#ffffff" fill-opacity="1"><g transform="translate(108.490025, 221.144357)"><g><path d="M 15.421875 -11.484375 L 17.90625 -0.890625 L 15.578125 -0.03125 L 14.171875 -6.65625 C 13.992188 -5.925781 13.710938 -5.171875 13.328125 -4.390625 C 12.953125 -3.617188 12.484375 -2.914062 11.921875 -2.28125 C 11.367188 -1.644531 10.707031 -1.125 9.9375 -0.71875 C 9.175781 -0.3125 8.316406 -0.109375 7.359375 -0.109375 C 5.648438 -0.109375 4.347656 -0.660156 3.453125 -1.765625 C 2.554688 -2.867188 2.109375 -4.394531 2.109375 -6.34375 C 2.109375 -7.457031 2.273438 -8.617188 2.609375 -9.828125 C 2.941406 -11.035156 3.445312 -12.132812 4.125 -13.125 C 4.800781 -14.113281 5.648438 -14.929688 6.671875 -15.578125 C 7.703125 -16.222656 8.90625 -16.546875 10.28125 -16.546875 C 11.082031 -16.546875 11.785156 -16.367188 12.390625 -16.015625 C 13.003906 -15.671875 13.519531 -15.238281 13.9375 -14.71875 C 14.351562 -14.195312 14.675781 -13.644531 14.90625 -13.0625 C 15.144531 -12.476562 15.316406 -11.953125 15.421875 -11.484375 Z M 10.671875 -13.75 C 10.484375 -13.800781 10.304688 -13.835938 10.140625 -13.859375 C 9.972656 -13.890625 9.800781 -13.90625 9.625 -13.90625 C 8.8125 -13.90625 8.085938 -13.664062 7.453125 -13.1875 C 6.816406 -12.707031 6.285156 -12.101562 5.859375 -11.375 C 5.429688 -10.644531 5.109375 -9.847656 4.890625 -8.984375 C 4.671875 -8.128906 4.5625 -7.34375 4.5625 -6.625 C 4.5625 -5.476562 4.804688 -4.550781 5.296875 -3.84375 C 5.785156 -3.144531 6.5625 -2.796875 7.625 -2.796875 C 8.351562 -2.796875 9.03125 -3.035156 9.65625 -3.515625 C 10.28125 -4.003906 10.8125 -4.609375 11.25 -5.328125 C 11.695312 -6.054688 12.039062 -6.851562 12.28125 -7.71875 C 12.53125 -8.59375 12.65625 -9.40625 12.65625 -10.15625 C 12.65625 -10.988281 12.492188 -11.722656 12.171875 -12.359375 C 11.847656 -12.992188 11.347656 -13.457031 10.671875 -13.75 Z M 10.671875 -13.75 "/></g></g></g><g fill="#ffffff" fill-opacity="1"><g transform="translate(128.875459, 221.144357)"><g><path d="M 12.390625 -14.84375 L 11.84375 -12.5 C 11.632812 -12.601562 11.351562 -12.710938 11 -12.828125 C 10.644531 -12.941406 10.253906 -13.050781 9.828125 -13.15625 C 9.398438 -13.257812 8.945312 -13.34375 8.46875 -13.40625 C 7.988281 -13.476562 7.539062 -13.515625 7.125 -13.515625 C 6.34375 -13.515625 5.671875 -13.394531 5.109375 -13.15625 C 4.554688 -12.925781 4.28125 -12.515625 4.28125 -11.921875 C 4.28125 -11.472656 4.515625 -11.09375 4.984375 -10.78125 C 5.453125 -10.46875 6.003906 -10.203125 6.640625 -9.984375 C 7.273438 -9.765625 7.910156 -9.585938 8.546875 -9.453125 C 9.179688 -9.328125 9.679688 -9.226562 10.046875 -9.15625 C 10.828125 -8.914062 11.457031 -8.609375 11.9375 -8.234375 C 12.414062 -7.859375 12.789062 -7.457031 13.0625 -7.03125 C 13.332031 -6.601562 13.519531 -6.15625 13.625 -5.6875 C 13.726562 -5.21875 13.78125 -4.765625 13.78125 -4.328125 C 13.78125 -3.390625 13.566406 -2.601562 13.140625 -1.96875 C 12.710938 -1.332031 12.164062 -0.8125 11.5 -0.40625 C 10.84375 -0.0078125 10.101562 0.273438 9.28125 0.453125 C 8.46875 0.640625 7.660156 0.734375 6.859375 0.734375 C 5.609375 0.734375 4.414062 0.566406 3.28125 0.234375 C 2.15625 -0.0976562 1.269531 -0.550781 0.625 -1.125 L 1.5625 -3.78125 C 1.875 -3.519531 2.242188 -3.273438 2.671875 -3.046875 C 3.097656 -2.828125 3.570312 -2.632812 4.09375 -2.46875 C 4.613281 -2.300781 5.15625 -2.171875 5.71875 -2.078125 C 6.289062 -1.992188 6.851562 -1.953125 7.40625 -1.953125 C 8.332031 -1.953125 9.160156 -2.128906 9.890625 -2.484375 C 10.617188 -2.847656 11.0625 -3.488281 11.21875 -4.40625 C 11.21875 -4.5625 11.195312 -4.757812 11.15625 -5 C 11.113281 -5.25 11.019531 -5.488281 10.875 -5.71875 C 10.738281 -5.957031 10.519531 -6.179688 10.21875 -6.390625 C 9.925781 -6.597656 9.503906 -6.738281 8.953125 -6.8125 C 7.890625 -6.96875 6.910156 -7.175781 6.015625 -7.4375 C 5.117188 -7.695312 4.34375 -8.019531 3.6875 -8.40625 C 3.039062 -8.800781 2.53125 -9.273438 2.15625 -9.828125 C 1.78125 -10.390625 1.59375 -11.046875 1.59375 -11.796875 C 1.59375 -13.253906 2.070312 -14.304688 3.03125 -14.953125 C 4 -15.597656 5.414062 -15.921875 7.28125 -15.921875 C 8.269531 -15.921875 9.222656 -15.816406 10.140625 -15.609375 C 11.066406 -15.398438 11.816406 -15.144531 12.390625 -14.84375 Z M 12.390625 -14.84375 "/></g></g></g><g fill="#ffffff" fill-opacity="1"><g transform="translate(144.121763, 221.144357)"><g><path d="M 7.40625 -2.375 L 0.625 -14.140625 L 2.71875 -15.765625 L 8.453125 -5.453125 L 12.234375 -16.625 L 14.40625 -15.453125 L 6.78125 6.96875 L 4.671875 5.640625 Z M 7.40625 -2.375 "/></g></g></g><g fill="#ffffff" fill-opacity="1"><g transform="translate(160.068858, 221.144357)"><g/></g></g><g fill="#ffffff" fill-opacity="1"><g transform="translate(171.188286, 221.144357)"><g><path d="M 17.375 -21.53125 L 15.65625 -20.4375 C 15.238281 -21.039062 14.613281 -21.570312 13.78125 -22.03125 C 12.945312 -22.5 12.066406 -22.734375 11.140625 -22.734375 C 10.046875 -22.734375 9.035156 -22.46875 8.109375 -21.9375 C 7.191406 -21.40625 6.390625 -20.644531 5.703125 -19.65625 C 5.015625 -18.675781 4.472656 -17.5 4.078125 -16.125 C 3.691406 -14.75 3.5 -13.226562 3.5 -11.5625 C 3.53125 -10.113281 3.796875 -8.800781 4.296875 -7.625 C 4.804688 -6.457031 5.460938 -5.460938 6.265625 -4.640625 C 7.078125 -3.828125 7.972656 -3.203125 8.953125 -2.765625 C 9.941406 -2.328125 10.929688 -2.109375 11.921875 -2.109375 C 13.210938 -2.109375 14.378906 -2.398438 15.421875 -2.984375 C 16.460938 -3.566406 17.394531 -4.503906 18.21875 -5.796875 L 19.78125 -3.546875 C 18.613281 -2.140625 17.351562 -1.113281 16 -0.46875 C 14.65625 0.175781 13.226562 0.5 11.71875 0.5 C 10.34375 0.5 9.003906 0.191406 7.703125 -0.421875 C 6.410156 -1.046875 5.253906 -1.921875 4.234375 -3.046875 C 3.222656 -4.179688 2.410156 -5.546875 1.796875 -7.140625 C 1.191406 -8.742188 0.890625 -10.519531 0.890625 -12.46875 C 0.890625 -13.945312 1.082031 -15.4375 1.46875 -16.9375 C 1.863281 -18.445312 2.46875 -19.8125 3.28125 -21.03125 C 4.101562 -22.25 5.15625 -23.238281 6.4375 -24 C 7.726562 -24.769531 9.269531 -25.15625 11.0625 -25.15625 C 12.40625 -25.15625 13.660156 -24.878906 14.828125 -24.328125 C 16.003906 -23.785156 16.851562 -22.851562 17.375 -21.53125 Z M 17.375 -21.53125 "/></g></g></g><g fill="#ffffff" fill-opacity="1"><g transform="translate(192.741703, 221.144357)"><g><path d="M 7.9375 -13.671875 C 6.507812 -13.671875 5.382812 -13.226562 4.5625 -12.34375 C 3.75 -11.457031 3.34375 -10.039062 3.34375 -8.09375 C 3.34375 -7.34375 3.445312 -6.597656 3.65625 -5.859375 C 3.863281 -5.117188 4.160156 -4.445312 4.546875 -3.84375 C 4.941406 -3.25 5.410156 -2.765625 5.953125 -2.390625 C 6.503906 -2.015625 7.113281 -1.828125 7.78125 -1.828125 C 8.488281 -1.828125 9.125 -1.992188 9.6875 -2.328125 C 10.257812 -2.671875 10.738281 -3.109375 11.125 -3.640625 C 11.519531 -4.171875 11.828125 -4.765625 12.046875 -5.421875 C 12.273438 -6.085938 12.390625 -6.734375 12.390625 -7.359375 C 12.390625 -9.640625 11.976562 -11.257812 11.15625 -12.21875 C 10.34375 -13.1875 9.269531 -13.671875 7.9375 -13.671875 Z M 7.703125 -16.3125 C 9.003906 -16.3125 10.109375 -16.078125 11.015625 -15.609375 C 11.929688 -15.148438 12.671875 -14.507812 13.234375 -13.6875 C 13.804688 -12.875 14.222656 -11.925781 14.484375 -10.84375 C 14.742188 -9.769531 14.875 -8.609375 14.875 -7.359375 C 14.820312 -5.953125 14.59375 -4.738281 14.1875 -3.71875 C 13.789062 -2.695312 13.265625 -1.847656 12.609375 -1.171875 C 11.960938 -0.492188 11.226562 0.00390625 10.40625 0.328125 C 9.59375 0.648438 8.742188 0.8125 7.859375 0.8125 C 6.691406 0.8125 5.671875 0.578125 4.796875 0.109375 C 3.929688 -0.347656 3.207031 -0.972656 2.625 -1.765625 C 2.039062 -2.554688 1.597656 -3.460938 1.296875 -4.484375 C 1.003906 -5.515625 0.859375 -6.601562 0.859375 -7.75 C 0.859375 -8.96875 1.019531 -10.101562 1.34375 -11.15625 C 1.664062 -12.207031 2.117188 -13.113281 2.703125 -13.875 C 3.285156 -14.644531 4 -15.242188 4.84375 -15.671875 C 5.6875 -16.097656 6.640625 -16.3125 7.703125 -16.3125 Z M 7.703125 -16.3125 "/></g></g></g><g fill="#ffffff" fill-opacity="1"><g transform="translate(209.155997, 221.144357)"><g><path d="M 7.9375 -13.671875 C 6.507812 -13.671875 5.382812 -13.226562 4.5625 -12.34375 C 3.75 -11.457031 3.34375 -10.039062 3.34375 -8.09375 C 3.34375 -7.34375 3.445312 -6.597656 3.65625 -5.859375 C 3.863281 -5.117188 4.160156 -4.445312 4.546875 -3.84375 C 4.941406 -3.25 5.410156 -2.765625 5.953125 -2.390625 C 6.503906 -2.015625 7.113281 -1.828125 7.78125 -1.828125 C 8.488281 -1.828125 9.125 -1.992188 9.6875 -2.328125 C 10.257812 -2.671875 10.738281 -3.109375 11.125 -3.640625 C 11.519531 -4.171875 11.828125 -4.765625 12.046875 -5.421875 C 12.273438 -6.085938 12.390625 -6.734375 12.390625 -7.359375 C 12.390625 -9.640625 11.976562 -11.257812 11.15625 -12.21875 C 10.34375 -13.1875 9.269531 -13.671875 7.9375 -13.671875 Z M 7.703125 -16.3125 C 9.003906 -16.3125 10.109375 -16.078125 11.015625 -15.609375 C 11.929688 -15.148438 12.671875 -14.507812 13.234375 -13.6875 C 13.804688 -12.875 14.222656 -11.925781 14.484375 -10.84375 C 14.742188 -9.769531 14.875 -8.609375 14.875 -7.359375 C 14.820312 -5.953125 14.59375 -4.738281 14.1875 -3.71875 C 13.789062 -2.695312 13.265625 -1.847656 12.609375 -1.171875 C 11.960938 -0.492188 11.226562 0.00390625 10.40625 0.328125 C 9.59375 0.648438 8.742188 0.8125 7.859375 0.8125 C 6.691406 0.8125 5.671875 0.578125 4.796875 0.109375 C 3.929688 -0.347656 3.207031 -0.972656 2.625 -1.765625 C 2.039062 -2.554688 1.597656 -3.460938 1.296875 -4.484375 C 1.003906 -5.515625 0.859375 -6.601562 0.859375 -7.75 C 0.859375 -8.96875 1.019531 -10.101562 1.34375 -11.15625 C 1.664062 -12.207031 2.117188 -13.113281 2.703125 -13.875 C 3.285156 -14.644531 4 -15.242188 4.84375 -15.671875 C 5.6875 -16.097656 6.640625 -16.3125 7.703125 -16.3125 Z M 7.703125 -16.3125 "/></g></g></g><g fill="#ffffff" fill-opacity="1"><g transform="translate(225.57028, 221.144357)"><g><path d="M 4.125 -8.484375 L 13.703125 -17.09375 L 15.421875 -14.84375 L 10.28125 -9.9375 L 17.453125 -1.4375 L 15.890625 0.734375 L 8.25 -8.015625 L 5.0625 -4.984375 L 5.0625 0.265625 L 2.71875 0.578125 L 2.71875 -25.1875 L 4.125 -25.65625 Z M 4.125 -8.484375 "/></g></g></g><g fill="#ffffff" fill-opacity="1"><g transform="translate(244.554127, 221.144357)"><g><path d="M 2.421875 0.109375 L 2.421875 -14.140625 L 5.140625 -14.140625 L 5.140625 0.265625 Z M 6 -17.328125 L 3.265625 -16.546875 L 0.78125 -22.46875 L 3.5 -23.171875 Z M 6 -17.328125 "/></g></g></g><g fill="#ffffff" fill-opacity="1"><g transform="translate(252.636791, 221.144357)"><g><path d="M 12.078125 -12.65625 L 4.515625 -12.65625 L 4.515625 -0.1875 L 2.5625 0.03125 L 2.5625 -16.703125 L 4.4375 -17.09375 L 4.4375 -15.140625 L 13.46875 -15.6875 L 14.640625 -13.359375 L 15.8125 -0.65625 L 13.3125 0.03125 Z M 12.078125 -12.65625 "/></g></g></g><g fill="#ffffff" fill-opacity="1"><g transform="translate(270.141193, 221.144357)"><g><path d="M 3.546875 -5.953125 C 3.722656 -5.148438 4.070312 -4.578125 4.59375 -4.234375 C 5.113281 -3.898438 5.695312 -3.734375 6.34375 -3.734375 C 7.050781 -3.734375 7.800781 -3.898438 8.59375 -4.234375 C 9.382812 -4.578125 10.113281 -5.023438 10.78125 -5.578125 C 11.457031 -6.140625 12.019531 -6.785156 12.46875 -7.515625 C 12.925781 -8.242188 13.15625 -9 13.15625 -9.78125 C 13.15625 -10.707031 12.863281 -11.484375 12.28125 -12.109375 C 11.695312 -12.734375 10.960938 -13.046875 10.078125 -13.046875 C 9.378906 -13.015625 8.640625 -12.835938 7.859375 -12.515625 C 7.085938 -12.191406 6.367188 -11.753906 5.703125 -11.203125 C 5.046875 -10.660156 4.492188 -10.03125 4.046875 -9.3125 C 3.609375 -8.601562 3.390625 -7.835938 3.390625 -7.015625 C 3.390625 -6.617188 3.441406 -6.265625 3.546875 -5.953125 Z M 12.8125 7.359375 L 0.8125 7.359375 L 0.8125 4.328125 L 11.40625 4.328125 L 13.046875 2.921875 L 12.890625 -4.015625 C 12.210938 -3.078125 11.273438 -2.351562 10.078125 -1.84375 C 8.890625 -1.34375 7.671875 -1.09375 6.421875 -1.09375 C 4.816406 -1.09375 3.488281 -1.601562 2.4375 -2.625 C 1.382812 -3.65625 0.859375 -5.15625 0.859375 -7.125 C 0.859375 -8.320312 1.125 -9.429688 1.65625 -10.453125 C 2.1875 -11.484375 2.890625 -12.367188 3.765625 -13.109375 C 4.648438 -13.847656 5.644531 -14.421875 6.75 -14.828125 C 7.851562 -15.242188 8.988281 -15.453125 10.15625 -15.453125 C 11.40625 -15.453125 12.53125 -15.144531 13.53125 -14.53125 C 14.53125 -13.925781 15.195312 -12.960938 15.53125 -11.640625 L 15.53125 4.40625 Z M 12.8125 7.359375 "/></g></g></g><g fill="#ffffff" fill-opacity="1"><g transform="translate(120.113127, 245.679476)"><g><path d="M 4.359375 -0.296875 L 0.921875 -0.296875 L 0.921875 -1.109375 L 2.046875 -1.109375 L 2.046875 -8.3125 L 0.4375 -8.3125 L 0.4375 -9.09375 L 3.609375 -9.296875 L 3.609375 -8.46875 L 2.5625 -8.375 L 2.5625 -1.171875 L 4.359375 -1.171875 Z M 4.359375 -0.296875 "/></g></g></g><g fill="#ffffff" fill-opacity="1"><g transform="translate(125.413936, 245.679476)"><g><path d="M 0.515625 -6.046875 L 1.40625 -6.25 L 1.484375 -5.609375 L 6.78125 -5.609375 L 7.4375 -4.859375 L 7.4375 -0.359375 L 6.828125 -0.28125 L 6.828125 -4.078125 L 6.265625 -4.859375 L 4.78125 -4.859375 L 4.78125 -0.15625 L 3.953125 -0.15625 L 3.953125 -4.75 L 1.59375 -4.75 L 2.078125 -0.015625 L 1.15625 0.09375 Z M 0.515625 -6.046875 "/></g></g></g><g fill="#ffffff" fill-opacity="1"><g transform="translate(133.915885, 245.679476)"><g><path d="M 5.65625 -3.421875 L 5.65625 -3.109375 C 5.65625 -2.566406 5.570312 -2.113281 5.40625 -1.75 C 5.238281 -1.382812 5.03125 -1.09375 4.78125 -0.875 C 4.539062 -0.65625 4.269531 -0.5 3.96875 -0.40625 C 3.675781 -0.320312 3.394531 -0.28125 3.125 -0.28125 C 2.820312 -0.28125 2.535156 -0.316406 2.265625 -0.390625 C 2.003906 -0.472656 1.804688 -0.566406 1.671875 -0.671875 L 1.78125 2.546875 L 0.890625 2.640625 L 0.890625 -5.203125 L 0.984375 -5.875 C 1.691406 -6.03125 2.304688 -6.109375 2.828125 -6.109375 C 3.722656 -6.109375 4.40625 -5.882812 4.875 -5.4375 C 5.351562 -4.988281 5.613281 -4.316406 5.65625 -3.421875 Z M 1.53125 -4.859375 L 1.59375 -2 C 1.59375 -1.957031 1.640625 -1.898438 1.734375 -1.828125 C 1.828125 -1.765625 1.945312 -1.703125 2.09375 -1.640625 C 2.25 -1.578125 2.414062 -1.519531 2.59375 -1.46875 C 2.78125 -1.425781 2.96875 -1.40625 3.15625 -1.40625 C 3.34375 -1.40625 3.53125 -1.4375 3.71875 -1.5 C 3.90625 -1.5625 4.070312 -1.671875 4.21875 -1.828125 C 4.363281 -1.984375 4.484375 -2.191406 4.578125 -2.453125 C 4.679688 -2.710938 4.734375 -3.035156 4.734375 -3.421875 C 4.734375 -3.710938 4.675781 -3.972656 4.5625 -4.203125 C 4.445312 -4.429688 4.296875 -4.617188 4.109375 -4.765625 C 3.921875 -4.910156 3.707031 -5.019531 3.46875 -5.09375 C 3.238281 -5.164062 3 -5.203125 2.75 -5.203125 C 2.53125 -5.203125 2.3125 -5.171875 2.09375 -5.109375 C 1.882812 -5.054688 1.695312 -4.972656 1.53125 -4.859375 Z M 1.53125 -4.859375 "/></g></g></g><g fill="#ffffff" fill-opacity="1"><g transform="translate(140.197224, 245.679476)"><g><path d="M 1.234375 0.328125 L 0.75 -6.015625 L 1.640625 -6.125 L 1.84375 -3.328125 L 4.9375 -5.40625 L 5.328125 -4.59375 L 1.984375 -2.171875 L 1.984375 0.25 Z M 1.234375 0.328125 "/></g></g></g><g fill="#ffffff" fill-opacity="1"><g transform="translate(146.017136, 245.679476)"><g><path d="M 2.9375 -5.0625 C 2.414062 -5.0625 2 -4.894531 1.6875 -4.5625 C 1.382812 -4.238281 1.234375 -3.71875 1.234375 -3 C 1.234375 -2.71875 1.269531 -2.441406 1.34375 -2.171875 C 1.425781 -1.898438 1.539062 -1.648438 1.6875 -1.421875 C 1.832031 -1.203125 2.003906 -1.019531 2.203125 -0.875 C 2.410156 -0.738281 2.640625 -0.671875 2.890625 -0.671875 C 3.140625 -0.671875 3.367188 -0.734375 3.578125 -0.859375 C 3.796875 -0.984375 3.976562 -1.144531 4.125 -1.34375 C 4.269531 -1.539062 4.378906 -1.757812 4.453125 -2 C 4.535156 -2.25 4.578125 -2.488281 4.578125 -2.71875 C 4.578125 -3.570312 4.425781 -4.175781 4.125 -4.53125 C 3.820312 -4.882812 3.425781 -5.0625 2.9375 -5.0625 Z M 2.859375 -6.046875 C 3.335938 -6.046875 3.742188 -5.957031 4.078125 -5.78125 C 4.410156 -5.601562 4.679688 -5.363281 4.890625 -5.0625 C 5.109375 -4.757812 5.265625 -4.410156 5.359375 -4.015625 C 5.460938 -3.617188 5.515625 -3.1875 5.515625 -2.71875 C 5.492188 -2.207031 5.40625 -1.757812 5.25 -1.375 C 5.101562 -1 4.910156 -0.6875 4.671875 -0.4375 C 4.429688 -0.1875 4.160156 -0.00390625 3.859375 0.109375 C 3.554688 0.234375 3.238281 0.296875 2.90625 0.296875 C 2.476562 0.296875 2.101562 0.207031 1.78125 0.03125 C 1.457031 -0.132812 1.1875 -0.363281 0.96875 -0.65625 C 0.757812 -0.945312 0.597656 -1.28125 0.484375 -1.65625 C 0.367188 -2.039062 0.3125 -2.445312 0.3125 -2.875 C 0.3125 -3.320312 0.367188 -3.738281 0.484375 -4.125 C 0.609375 -4.519531 0.78125 -4.859375 1 -5.140625 C 1.21875 -5.421875 1.484375 -5.640625 1.796875 -5.796875 C 2.109375 -5.960938 2.460938 -6.046875 2.859375 -6.046875 Z M 2.859375 -6.046875 "/></g></g></g><g fill="#ffffff" fill-opacity="1"><g transform="translate(152.096601, 245.679476)"><g><path d="M 2.1875 0.125 L 0.46875 -5.890625 L 1.46875 -5.890625 L 2.765625 -1.25 L 5.015625 -6.015625 L 5.9375 -5.8125 L 3.203125 0.125 Z M 2.1875 0.125 "/></g></g></g><g fill="#ffffff" fill-opacity="1"><g transform="translate(158.724008, 245.679476)"><g><path d="M 0.890625 0.046875 L 0.890625 -5.234375 L 1.90625 -5.234375 L 1.90625 0.09375 Z M 2.21875 -6.421875 L 1.21875 -6.125 L 0.28125 -8.3125 L 1.296875 -8.578125 Z M 2.21875 -6.421875 "/></g></g></g><g fill="#ffffff" fill-opacity="1"><g transform="translate(161.717688, 245.679476)"><g><path d="M 4.578125 -5.5 L 4.390625 -4.625 C 4.304688 -4.664062 4.195312 -4.707031 4.0625 -4.75 C 3.9375 -4.789062 3.796875 -4.832031 3.640625 -4.875 C 3.484375 -4.914062 3.316406 -4.945312 3.140625 -4.96875 C 2.960938 -4.988281 2.796875 -5 2.640625 -5 C 2.347656 -5 2.097656 -4.957031 1.890625 -4.875 C 1.691406 -4.789062 1.59375 -4.632812 1.59375 -4.40625 C 1.59375 -4.25 1.675781 -4.113281 1.84375 -4 C 2.019531 -3.882812 2.222656 -3.785156 2.453125 -3.703125 C 2.691406 -3.617188 2.925781 -3.550781 3.15625 -3.5 C 3.394531 -3.457031 3.582031 -3.421875 3.71875 -3.390625 C 4.007812 -3.304688 4.242188 -3.191406 4.421875 -3.046875 C 4.597656 -2.910156 4.734375 -2.757812 4.828125 -2.59375 C 4.929688 -2.4375 5.003906 -2.269531 5.046875 -2.09375 C 5.085938 -1.925781 5.109375 -1.757812 5.109375 -1.59375 C 5.109375 -1.25 5.023438 -0.957031 4.859375 -0.71875 C 4.703125 -0.488281 4.5 -0.296875 4.25 -0.140625 C 4.007812 0.00390625 3.738281 0.109375 3.4375 0.171875 C 3.132812 0.242188 2.832031 0.28125 2.53125 0.28125 C 2.070312 0.28125 1.632812 0.21875 1.21875 0.09375 C 0.800781 -0.03125 0.472656 -0.203125 0.234375 -0.421875 L 0.578125 -1.40625 C 0.691406 -1.300781 0.828125 -1.207031 0.984375 -1.125 C 1.140625 -1.050781 1.3125 -0.984375 1.5 -0.921875 C 1.695312 -0.859375 1.898438 -0.804688 2.109375 -0.765625 C 2.328125 -0.734375 2.535156 -0.71875 2.734375 -0.71875 C 3.085938 -0.71875 3.394531 -0.785156 3.65625 -0.921875 C 3.925781 -1.054688 4.09375 -1.289062 4.15625 -1.625 C 4.15625 -1.6875 4.144531 -1.757812 4.125 -1.84375 C 4.113281 -1.9375 4.082031 -2.023438 4.03125 -2.109375 C 3.976562 -2.203125 3.894531 -2.285156 3.78125 -2.359375 C 3.675781 -2.441406 3.519531 -2.492188 3.3125 -2.515625 C 2.914062 -2.578125 2.550781 -2.65625 2.21875 -2.75 C 1.894531 -2.84375 1.613281 -2.960938 1.375 -3.109375 C 1.132812 -3.253906 0.941406 -3.429688 0.796875 -3.640625 C 0.660156 -3.847656 0.59375 -4.09375 0.59375 -4.375 C 0.59375 -4.90625 0.769531 -5.289062 1.125 -5.53125 C 1.476562 -5.769531 2.003906 -5.890625 2.703125 -5.890625 C 3.066406 -5.890625 3.414062 -5.851562 3.75 -5.78125 C 4.09375 -5.707031 4.367188 -5.613281 4.578125 -5.5 Z M 4.578125 -5.5 "/></g></g></g><g fill="#ffffff" fill-opacity="1"><g transform="translate(167.364566, 245.679476)"><g><path d="M 5.703125 -4.25 L 6.640625 -0.328125 L 5.765625 -0.015625 L 5.25 -2.46875 C 5.175781 -2.195312 5.070312 -1.914062 4.9375 -1.625 C 4.800781 -1.34375 4.628906 -1.082031 4.421875 -0.84375 C 4.210938 -0.601562 3.96875 -0.410156 3.6875 -0.265625 C 3.40625 -0.117188 3.082031 -0.046875 2.71875 -0.046875 C 2.09375 -0.046875 1.613281 -0.25 1.28125 -0.65625 C 0.945312 -1.0625 0.78125 -1.625 0.78125 -2.34375 C 0.78125 -2.757812 0.84375 -3.191406 0.96875 -3.640625 C 1.09375 -4.085938 1.28125 -4.492188 1.53125 -4.859375 C 1.78125 -5.222656 2.09375 -5.523438 2.46875 -5.765625 C 2.851562 -6.003906 3.300781 -6.125 3.8125 -6.125 C 4.101562 -6.125 4.363281 -6.054688 4.59375 -5.921875 C 4.820312 -5.796875 5.007812 -5.632812 5.15625 -5.4375 C 5.3125 -5.25 5.429688 -5.046875 5.515625 -4.828125 C 5.609375 -4.617188 5.671875 -4.425781 5.703125 -4.25 Z M 3.953125 -5.09375 C 3.878906 -5.113281 3.8125 -5.125 3.75 -5.125 C 3.6875 -5.132812 3.625 -5.140625 3.5625 -5.140625 C 3.257812 -5.140625 2.988281 -5.050781 2.75 -4.875 C 2.519531 -4.695312 2.328125 -4.472656 2.171875 -4.203125 C 2.015625 -3.941406 1.894531 -3.648438 1.8125 -3.328125 C 1.726562 -3.015625 1.6875 -2.722656 1.6875 -2.453125 C 1.6875 -2.023438 1.773438 -1.679688 1.953125 -1.421875 C 2.140625 -1.160156 2.429688 -1.03125 2.828125 -1.03125 C 3.097656 -1.03125 3.347656 -1.117188 3.578125 -1.296875 C 3.804688 -1.484375 4 -1.707031 4.15625 -1.96875 C 4.320312 -2.238281 4.453125 -2.535156 4.546875 -2.859375 C 4.640625 -3.179688 4.6875 -3.484375 4.6875 -3.765625 C 4.6875 -4.066406 4.625 -4.335938 4.5 -4.578125 C 4.382812 -4.816406 4.203125 -4.988281 3.953125 -5.09375 Z M 3.953125 -5.09375 "/></g></g></g><g fill="#ffffff" fill-opacity="1"><g transform="translate(174.914828, 245.679476)"><g><path d="M 5.5625 -9.8125 L 5.5625 -0.53125 L 5.1875 -0.078125 C 4.875 0.0234375 4.578125 0.09375 4.296875 0.125 C 4.015625 0.164062 3.75 0.1875 3.5 0.1875 C 2.914062 0.1875 2.421875 0.0976562 2.015625 -0.078125 C 1.617188 -0.265625 1.296875 -0.503906 1.046875 -0.796875 C 0.796875 -1.097656 0.613281 -1.429688 0.5 -1.796875 C 0.394531 -2.160156 0.34375 -2.53125 0.34375 -2.90625 C 0.34375 -3.4375 0.425781 -3.882812 0.59375 -4.25 C 0.757812 -4.625 0.972656 -4.929688 1.234375 -5.171875 C 1.492188 -5.410156 1.789062 -5.585938 2.125 -5.703125 C 2.457031 -5.816406 2.796875 -5.875 3.140625 -5.875 C 3.710938 -5.875 4.222656 -5.75 4.671875 -5.5 L 4.640625 -9.84375 Z M 4.609375 -4.21875 C 4.390625 -4.425781 4.148438 -4.578125 3.890625 -4.671875 C 3.628906 -4.773438 3.363281 -4.828125 3.09375 -4.828125 C 2.863281 -4.828125 2.640625 -4.785156 2.421875 -4.703125 C 2.210938 -4.617188 2.023438 -4.5 1.859375 -4.34375 C 1.691406 -4.1875 1.554688 -3.988281 1.453125 -3.75 C 1.359375 -3.519531 1.3125 -3.242188 1.3125 -2.921875 C 1.3125 -2.554688 1.375 -2.242188 1.5 -1.984375 C 1.625 -1.722656 1.789062 -1.507812 2 -1.34375 C 2.207031 -1.1875 2.445312 -1.066406 2.71875 -0.984375 C 2.988281 -0.898438 3.273438 -0.859375 3.578125 -0.859375 C 3.960938 -0.859375 4.304688 -0.929688 4.609375 -1.078125 Z M 4.609375 -4.21875 "/></g></g></g><g fill="#ffffff" fill-opacity="1"><g transform="translate(181.426882, 245.679476)"><g><path d="M 2.9375 -5.0625 C 2.414062 -5.0625 2 -4.894531 1.6875 -4.5625 C 1.382812 -4.238281 1.234375 -3.71875 1.234375 -3 C 1.234375 -2.71875 1.269531 -2.441406 1.34375 -2.171875 C 1.425781 -1.898438 1.539062 -1.648438 1.6875 -1.421875 C 1.832031 -1.203125 2.003906 -1.019531 2.203125 -0.875 C 2.410156 -0.738281 2.640625 -0.671875 2.890625 -0.671875 C 3.140625 -0.671875 3.367188 -0.734375 3.578125 -0.859375 C 3.796875 -0.984375 3.976562 -1.144531 4.125 -1.34375 C 4.269531 -1.539062 4.378906 -1.757812 4.453125 -2 C 4.535156 -2.25 4.578125 -2.488281 4.578125 -2.71875 C 4.578125 -3.570312 4.425781 -4.175781 4.125 -4.53125 C 3.820312 -4.882812 3.425781 -5.0625 2.9375 -5.0625 Z M 2.859375 -6.046875 C 3.335938 -6.046875 3.742188 -5.957031 4.078125 -5.78125 C 4.410156 -5.601562 4.679688 -5.363281 4.890625 -5.0625 C 5.109375 -4.757812 5.265625 -4.410156 5.359375 -4.015625 C 5.460938 -3.617188 5.515625 -3.1875 5.515625 -2.71875 C 5.492188 -2.207031 5.40625 -1.757812 5.25 -1.375 C 5.101562 -1 4.910156 -0.6875 4.671875 -0.4375 C 4.429688 -0.1875 4.160156 -0.00390625 3.859375 0.109375 C 3.554688 0.234375 3.238281 0.296875 2.90625 0.296875 C 2.476562 0.296875 2.101562 0.207031 1.78125 0.03125 C 1.457031 -0.132812 1.1875 -0.363281 0.96875 -0.65625 C 0.757812 -0.945312 0.597656 -1.28125 0.484375 -1.65625 C 0.367188 -2.039062 0.3125 -2.445312 0.3125 -2.875 C 0.3125 -3.320312 0.367188 -3.738281 0.484375 -4.125 C 0.609375 -4.519531 0.78125 -4.859375 1 -5.140625 C 1.21875 -5.421875 1.484375 -5.640625 1.796875 -5.796875 C 2.109375 -5.960938 2.460938 -6.046875 2.859375 -6.046875 Z M 2.859375 -6.046875 "/></g></g></g><g fill="#ffffff" fill-opacity="1"><g transform="translate(187.506349, 245.679476)"><g/></g></g><g fill="#ffffff" fill-opacity="1"><g transform="translate(191.624751, 245.679476)"><g><path d="M 0.515625 -2.953125 C 0.515625 -3.484375 0.59375 -3.925781 0.75 -4.28125 C 0.90625 -4.644531 1.097656 -4.9375 1.328125 -5.15625 C 1.566406 -5.375 1.828125 -5.523438 2.109375 -5.609375 C 2.398438 -5.703125 2.679688 -5.75 2.953125 -5.75 C 3.335938 -5.75 3.679688 -5.691406 3.984375 -5.578125 C 4.296875 -5.472656 4.5625 -5.289062 4.78125 -5.03125 C 5 -4.78125 5.164062 -4.441406 5.28125 -4.015625 C 5.394531 -3.597656 5.453125 -3.082031 5.453125 -2.46875 L 1.4375 -2.078125 C 1.46875 -1.804688 1.539062 -1.578125 1.65625 -1.390625 C 1.78125 -1.203125 1.929688 -1.050781 2.109375 -0.9375 C 2.296875 -0.820312 2.492188 -0.738281 2.703125 -0.6875 C 2.921875 -0.644531 3.140625 -0.625 3.359375 -0.625 C 3.722656 -0.625 4.070312 -0.675781 4.40625 -0.78125 C 4.75 -0.882812 5 -1.015625 5.15625 -1.171875 L 5.421875 -0.46875 C 5.359375 -0.375 5.257812 -0.28125 5.125 -0.1875 C 4.988281 -0.09375 4.828125 -0.0078125 4.640625 0.0625 C 4.460938 0.132812 4.257812 0.191406 4.03125 0.234375 C 3.800781 0.273438 3.566406 0.296875 3.328125 0.296875 C 2.992188 0.296875 2.65625 0.242188 2.3125 0.140625 C 1.976562 0.0351562 1.675781 -0.140625 1.40625 -0.390625 C 1.144531 -0.640625 0.929688 -0.972656 0.765625 -1.390625 C 0.597656 -1.804688 0.515625 -2.328125 0.515625 -2.953125 Z M 1.359375 -2.921875 L 4.53125 -3.265625 C 4.53125 -3.742188 4.40625 -4.125 4.15625 -4.40625 C 3.90625 -4.6875 3.5 -4.828125 2.9375 -4.828125 C 2.664062 -4.816406 2.429688 -4.757812 2.234375 -4.65625 C 2.046875 -4.550781 1.882812 -4.414062 1.75 -4.25 C 1.613281 -4.09375 1.507812 -3.914062 1.4375 -3.71875 C 1.375 -3.519531 1.34375 -3.3125 1.34375 -3.09375 C 1.34375 -3.019531 1.347656 -2.960938 1.359375 -2.921875 Z M 1.359375 -2.921875 "/></g></g></g><g fill="#ffffff" fill-opacity="1"><g transform="translate(197.819569, 245.679476)"><g/></g></g><g fill="#ffffff" fill-opacity="1"><g transform="translate(201.937972, 245.679476)"><g><path d="M 4.578125 -5.5 L 4.390625 -4.625 C 4.304688 -4.664062 4.195312 -4.707031 4.0625 -4.75 C 3.9375 -4.789062 3.796875 -4.832031 3.640625 -4.875 C 3.484375 -4.914062 3.316406 -4.945312 3.140625 -4.96875 C 2.960938 -4.988281 2.796875 -5 2.640625 -5 C 2.347656 -5 2.097656 -4.957031 1.890625 -4.875 C 1.691406 -4.789062 1.59375 -4.632812 1.59375 -4.40625 C 1.59375 -4.25 1.675781 -4.113281 1.84375 -4 C 2.019531 -3.882812 2.222656 -3.785156 2.453125 -3.703125 C 2.691406 -3.617188 2.925781 -3.550781 3.15625 -3.5 C 3.394531 -3.457031 3.582031 -3.421875 3.71875 -3.390625 C 4.007812 -3.304688 4.242188 -3.191406 4.421875 -3.046875 C 4.597656 -2.910156 4.734375 -2.757812 4.828125 -2.59375 C 4.929688 -2.4375 5.003906 -2.269531 5.046875 -2.09375 C 5.085938 -1.925781 5.109375 -1.757812 5.109375 -1.59375 C 5.109375 -1.25 5.023438 -0.957031 4.859375 -0.71875 C 4.703125 -0.488281 4.5 -0.296875 4.25 -0.140625 C 4.007812 0.00390625 3.738281 0.109375 3.4375 0.171875 C 3.132812 0.242188 2.832031 0.28125 2.53125 0.28125 C 2.070312 0.28125 1.632812 0.21875 1.21875 0.09375 C 0.800781 -0.03125 0.472656 -0.203125 0.234375 -0.421875 L 0.578125 -1.40625 C 0.691406 -1.300781 0.828125 -1.207031 0.984375 -1.125 C 1.140625 -1.050781 1.3125 -0.984375 1.5 -0.921875 C 1.695312 -0.859375 1.898438 -0.804688 2.109375 -0.765625 C 2.328125 -0.734375 2.535156 -0.71875 2.734375 -0.71875 C 3.085938 -0.71875 3.394531 -0.785156 3.65625 -0.921875 C 3.925781 -1.054688 4.09375 -1.289062 4.15625 -1.625 C 4.15625 -1.6875 4.144531 -1.757812 4.125 -1.84375 C 4.113281 -1.9375 4.082031 -2.023438 4.03125 -2.109375 C 3.976562 -2.203125 3.894531 -2.285156 3.78125 -2.359375 C 3.675781 -2.441406 3.519531 -2.492188 3.3125 -2.515625 C 2.914062 -2.578125 2.550781 -2.65625 2.21875 -2.75 C 1.894531 -2.84375 1.613281 -2.960938 1.375 -3.109375 C 1.132812 -3.253906 0.941406 -3.429688 0.796875 -3.640625 C 0.660156 -3.847656 0.59375 -4.09375 0.59375 -4.375 C 0.59375 -4.90625 0.769531 -5.289062 1.125 -5.53125 C 1.476562 -5.769531 2.003906 -5.890625 2.703125 -5.890625 C 3.066406 -5.890625 3.414062 -5.851562 3.75 -5.78125 C 4.09375 -5.707031 4.367188 -5.613281 4.578125 -5.5 Z M 4.578125 -5.5 "/></g></g></g><g fill="#ffffff" fill-opacity="1"><g transform="translate(207.584847, 245.679476)"><g><path d="M 5.703125 -4.25 L 6.640625 -0.328125 L 5.765625 -0.015625 L 5.25 -2.46875 C 5.175781 -2.195312 5.070312 -1.914062 4.9375 -1.625 C 4.800781 -1.34375 4.628906 -1.082031 4.421875 -0.84375 C 4.210938 -0.601562 3.96875 -0.410156 3.6875 -0.265625 C 3.40625 -0.117188 3.082031 -0.046875 2.71875 -0.046875 C 2.09375 -0.046875 1.613281 -0.25 1.28125 -0.65625 C 0.945312 -1.0625 0.78125 -1.625 0.78125 -2.34375 C 0.78125 -2.757812 0.84375 -3.191406 0.96875 -3.640625 C 1.09375 -4.085938 1.28125 -4.492188 1.53125 -4.859375 C 1.78125 -5.222656 2.09375 -5.523438 2.46875 -5.765625 C 2.851562 -6.003906 3.300781 -6.125 3.8125 -6.125 C 4.101562 -6.125 4.363281 -6.054688 4.59375 -5.921875 C 4.820312 -5.796875 5.007812 -5.632812 5.15625 -5.4375 C 5.3125 -5.25 5.429688 -5.046875 5.515625 -4.828125 C 5.609375 -4.617188 5.671875 -4.425781 5.703125 -4.25 Z M 3.953125 -5.09375 C 3.878906 -5.113281 3.8125 -5.125 3.75 -5.125 C 3.6875 -5.132812 3.625 -5.140625 3.5625 -5.140625 C 3.257812 -5.140625 2.988281 -5.050781 2.75 -4.875 C 2.519531 -4.695312 2.328125 -4.472656 2.171875 -4.203125 C 2.015625 -3.941406 1.894531 -3.648438 1.8125 -3.328125 C 1.726562 -3.015625 1.6875 -2.722656 1.6875 -2.453125 C 1.6875 -2.023438 1.773438 -1.679688 1.953125 -1.421875 C 2.140625 -1.160156 2.429688 -1.03125 2.828125 -1.03125 C 3.097656 -1.03125 3.347656 -1.117188 3.578125 -1.296875 C 3.804688 -1.484375 4 -1.707031 4.15625 -1.96875 C 4.320312 -2.238281 4.453125 -2.535156 4.546875 -2.859375 C 4.640625 -3.179688 4.6875 -3.484375 4.6875 -3.765625 C 4.6875 -4.066406 4.625 -4.335938 4.5 -4.578125 C 4.382812 -4.816406 4.203125 -4.988281 3.953125 -5.09375 Z M 3.953125 -5.09375 "/></g></g></g><g fill="#ffffff" fill-opacity="1"><g transform="translate(215.135109, 245.679476)"><g><path d="M 0.515625 -0.53125 L 0.515625 -9.59375 L 1.40625 -9.59375 L 1.390625 -5.46875 C 1.816406 -5.707031 2.304688 -5.828125 2.859375 -5.828125 C 3.203125 -5.828125 3.539062 -5.769531 3.875 -5.65625 C 4.21875 -5.550781 4.523438 -5.375 4.796875 -5.125 C 5.066406 -4.882812 5.285156 -4.578125 5.453125 -4.203125 C 5.617188 -3.828125 5.703125 -3.367188 5.703125 -2.828125 C 5.703125 -2.453125 5.648438 -2.082031 5.546875 -1.71875 C 5.453125 -1.351562 5.289062 -1.023438 5.0625 -0.734375 C 4.832031 -0.441406 4.523438 -0.207031 4.140625 -0.03125 C 3.753906 0.132812 3.28125 0.21875 2.71875 0.21875 C 2.457031 0.21875 2.171875 0.195312 1.859375 0.15625 C 1.554688 0.113281 1.222656 0.0351562 0.859375 -0.078125 Z M 1.4375 -4.203125 L 1.4375 -1.078125 C 1.84375 -0.941406 2.25 -0.875 2.65625 -0.875 C 2.9375 -0.875 3.203125 -0.910156 3.453125 -0.984375 C 3.703125 -1.054688 3.921875 -1.171875 4.109375 -1.328125 C 4.296875 -1.484375 4.445312 -1.679688 4.5625 -1.921875 C 4.6875 -2.171875 4.75 -2.460938 4.75 -2.796875 C 4.75 -3.117188 4.691406 -3.40625 4.578125 -3.65625 C 4.472656 -3.90625 4.332031 -4.113281 4.15625 -4.28125 C 3.988281 -4.445312 3.796875 -4.570312 3.578125 -4.65625 C 3.359375 -4.738281 3.128906 -4.78125 2.890625 -4.78125 C 2.640625 -4.78125 2.382812 -4.726562 2.125 -4.625 C 1.875 -4.53125 1.644531 -4.390625 1.4375 -4.203125 Z M 1.4375 -4.203125 "/></g></g></g><g fill="#ffffff" fill-opacity="1"><g transform="translate(221.445289, 245.679476)"><g><path d="M 2.9375 -5.0625 C 2.414062 -5.0625 2 -4.894531 1.6875 -4.5625 C 1.382812 -4.238281 1.234375 -3.71875 1.234375 -3 C 1.234375 -2.71875 1.269531 -2.441406 1.34375 -2.171875 C 1.425781 -1.898438 1.539062 -1.648438 1.6875 -1.421875 C 1.832031 -1.203125 2.003906 -1.019531 2.203125 -0.875 C 2.410156 -0.738281 2.640625 -0.671875 2.890625 -0.671875 C 3.140625 -0.671875 3.367188 -0.734375 3.578125 -0.859375 C 3.796875 -0.984375 3.976562 -1.144531 4.125 -1.34375 C 4.269531 -1.539062 4.378906 -1.757812 4.453125 -2 C 4.535156 -2.25 4.578125 -2.488281 4.578125 -2.71875 C 4.578125 -3.570312 4.425781 -4.175781 4.125 -4.53125 C 3.820312 -4.882812 3.425781 -5.0625 2.9375 -5.0625 Z M 2.859375 -6.046875 C 3.335938 -6.046875 3.742188 -5.957031 4.078125 -5.78125 C 4.410156 -5.601562 4.679688 -5.363281 4.890625 -5.0625 C 5.109375 -4.757812 5.265625 -4.410156 5.359375 -4.015625 C 5.460938 -3.617188 5.515625 -3.1875 5.515625 -2.71875 C 5.492188 -2.207031 5.40625 -1.757812 5.25 -1.375 C 5.101562 -1 4.910156 -0.6875 4.671875 -0.4375 C 4.429688 -0.1875 4.160156 -0.00390625 3.859375 0.109375 C 3.554688 0.234375 3.238281 0.296875 2.90625 0.296875 C 2.476562 0.296875 2.101562 0.207031 1.78125 0.03125 C 1.457031 -0.132812 1.1875 -0.363281 0.96875 -0.65625 C 0.757812 -0.945312 0.597656 -1.28125 0.484375 -1.65625 C 0.367188 -2.039062 0.3125 -2.445312 0.3125 -2.875 C 0.3125 -3.320312 0.367188 -3.738281 0.484375 -4.125 C 0.609375 -4.519531 0.78125 -4.859375 1 -5.140625 C 1.21875 -5.421875 1.484375 -5.640625 1.796875 -5.796875 C 2.109375 -5.960938 2.460938 -6.046875 2.859375 -6.046875 Z M 2.859375 -6.046875 "/></g></g></g><g fill="#ffffff" fill-opacity="1"><g transform="translate(227.524756, 245.679476)"><g><path d="M 1.234375 0.328125 L 0.75 -6.015625 L 1.640625 -6.125 L 1.84375 -3.328125 L 4.9375 -5.40625 L 5.328125 -4.59375 L 1.984375 -2.171875 L 1.984375 0.25 Z M 1.234375 0.328125 "/></g></g></g><g fill="#ffffff" fill-opacity="1"><g transform="translate(233.344672, 245.679476)"><g><path d="M 2.9375 -5.0625 C 2.414062 -5.0625 2 -4.894531 1.6875 -4.5625 C 1.382812 -4.238281 1.234375 -3.71875 1.234375 -3 C 1.234375 -2.71875 1.269531 -2.441406 1.34375 -2.171875 C 1.425781 -1.898438 1.539062 -1.648438 1.6875 -1.421875 C 1.832031 -1.203125 2.003906 -1.019531 2.203125 -0.875 C 2.410156 -0.738281 2.640625 -0.671875 2.890625 -0.671875 C 3.140625 -0.671875 3.367188 -0.734375 3.578125 -0.859375 C 3.796875 -0.984375 3.976562 -1.144531 4.125 -1.34375 C 4.269531 -1.539062 4.378906 -1.757812 4.453125 -2 C 4.535156 -2.25 4.578125 -2.488281 4.578125 -2.71875 C 4.578125 -3.570312 4.425781 -4.175781 4.125 -4.53125 C 3.820312 -4.882812 3.425781 -5.0625 2.9375 -5.0625 Z M 2.859375 -6.046875 C 3.335938 -6.046875 3.742188 -5.957031 4.078125 -5.78125 C 4.410156 -5.601562 4.679688 -5.363281 4.890625 -5.0625 C 5.109375 -4.757812 5.265625 -4.410156 5.359375 -4.015625 C 5.460938 -3.617188 5.515625 -3.1875 5.515625 -2.71875 C 5.492188 -2.207031 5.40625 -1.757812 5.25 -1.375 C 5.101562 -1 4.910156 -0.6875 4.671875 -0.4375 C 4.429688 -0.1875 4.160156 -0.00390625 3.859375 0.109375 C 3.554688 0.234375 3.238281 0.296875 2.90625 0.296875 C 2.476562 0.296875 2.101562 0.207031 1.78125 0.03125 C 1.457031 -0.132812 1.1875 -0.363281 0.96875 -0.65625 C 0.757812 -0.945312 0.597656 -1.28125 0.484375 -1.65625 C 0.367188 -2.039062 0.3125 -2.445312 0.3125 -2.875 C 0.3125 -3.320312 0.367188 -3.738281 0.484375 -4.125 C 0.609375 -4.519531 0.78125 -4.859375 1 -5.140625 C 1.21875 -5.421875 1.484375 -5.640625 1.796875 -5.796875 C 2.109375 -5.960938 2.460938 -6.046875 2.859375 -6.046875 Z M 2.859375 -6.046875 "/></g></g></g><g fill="#ffffff" fill-opacity="1"><g transform="translate(239.424139, 245.679476)"><g><path d="M 4.578125 -5.5 L 4.390625 -4.625 C 4.304688 -4.664062 4.195312 -4.707031 4.0625 -4.75 C 3.9375 -4.789062 3.796875 -4.832031 3.640625 -4.875 C 3.484375 -4.914062 3.316406 -4.945312 3.140625 -4.96875 C 2.960938 -4.988281 2.796875 -5 2.640625 -5 C 2.347656 -5 2.097656 -4.957031 1.890625 -4.875 C 1.691406 -4.789062 1.59375 -4.632812 1.59375 -4.40625 C 1.59375 -4.25 1.675781 -4.113281 1.84375 -4 C 2.019531 -3.882812 2.222656 -3.785156 2.453125 -3.703125 C 2.691406 -3.617188 2.925781 -3.550781 3.15625 -3.5 C 3.394531 -3.457031 3.582031 -3.421875 3.71875 -3.390625 C 4.007812 -3.304688 4.242188 -3.191406 4.421875 -3.046875 C 4.597656 -2.910156 4.734375 -2.757812 4.828125 -2.59375 C 4.929688 -2.4375 5.003906 -2.269531 5.046875 -2.09375 C 5.085938 -1.925781 5.109375 -1.757812 5.109375 -1.59375 C 5.109375 -1.25 5.023438 -0.957031 4.859375 -0.71875 C 4.703125 -0.488281 4.5 -0.296875 4.25 -0.140625 C 4.007812 0.00390625 3.738281 0.109375 3.4375 0.171875 C 3.132812 0.242188 2.832031 0.28125 2.53125 0.28125 C 2.070312 0.28125 1.632812 0.21875 1.21875 0.09375 C 0.800781 -0.03125 0.472656 -0.203125 0.234375 -0.421875 L 0.578125 -1.40625 C 0.691406 -1.300781 0.828125 -1.207031 0.984375 -1.125 C 1.140625 -1.050781 1.3125 -0.984375 1.5 -0.921875 C 1.695312 -0.859375 1.898438 -0.804688 2.109375 -0.765625 C 2.328125 -0.734375 2.535156 -0.71875 2.734375 -0.71875 C 3.085938 -0.71875 3.394531 -0.785156 3.65625 -0.921875 C 3.925781 -1.054688 4.09375 -1.289062 4.15625 -1.625 C 4.15625 -1.6875 4.144531 -1.757812 4.125 -1.84375 C 4.113281 -1.9375 4.082031 -2.023438 4.03125 -2.109375 C 3.976562 -2.203125 3.894531 -2.285156 3.78125 -2.359375 C 3.675781 -2.441406 3.519531 -2.492188 3.3125 -2.515625 C 2.914062 -2.578125 2.550781 -2.65625 2.21875 -2.75 C 1.894531 -2.84375 1.613281 -2.960938 1.375 -3.109375 C 1.132812 -3.253906 0.941406 -3.429688 0.796875 -3.640625 C 0.660156 -3.847656 0.59375 -4.09375 0.59375 -4.375 C 0.59375 -4.90625 0.769531 -5.289062 1.125 -5.53125 C 1.476562 -5.769531 2.003906 -5.890625 2.703125 -5.890625 C 3.066406 -5.890625 3.414062 -5.851562 3.75 -5.78125 C 4.09375 -5.707031 4.367188 -5.613281 4.578125 -5.5 Z M 4.578125 -5.5 "/></g></g></g><g fill="#ffffff" fill-opacity="1"><g transform="translate(245.07102, 245.679476)"><g><path d="M 2.9375 -5.0625 C 2.414062 -5.0625 2 -4.894531 1.6875 -4.5625 C 1.382812 -4.238281 1.234375 -3.71875 1.234375 -3 C 1.234375 -2.71875 1.269531 -2.441406 1.34375 -2.171875 C 1.425781 -1.898438 1.539062 -1.648438 1.6875 -1.421875 C 1.832031 -1.203125 2.003906 -1.019531 2.203125 -0.875 C 2.410156 -0.738281 2.640625 -0.671875 2.890625 -0.671875 C 3.140625 -0.671875 3.367188 -0.734375 3.578125 -0.859375 C 3.796875 -0.984375 3.976562 -1.144531 4.125 -1.34375 C 4.269531 -1.539062 4.378906 -1.757812 4.453125 -2 C 4.535156 -2.25 4.578125 -2.488281 4.578125 -2.71875 C 4.578125 -3.570312 4.425781 -4.175781 4.125 -4.53125 C 3.820312 -4.882812 3.425781 -5.0625 2.9375 -5.0625 Z M 2.859375 -6.046875 C 3.335938 -6.046875 3.742188 -5.957031 4.078125 -5.78125 C 4.410156 -5.601562 4.679688 -5.363281 4.890625 -5.0625 C 5.109375 -4.757812 5.265625 -4.410156 5.359375 -4.015625 C 5.460938 -3.617188 5.515625 -3.1875 5.515625 -2.71875 C 5.492188 -2.207031 5.40625 -1.757812 5.25 -1.375 C 5.101562 -1 4.910156 -0.6875 4.671875 -0.4375 C 4.429688 -0.1875 4.160156 -0.00390625 3.859375 0.109375 C 3.554688 0.234375 3.238281 0.296875 2.90625 0.296875 C 2.476562 0.296875 2.101562 0.207031 1.78125 0.03125 C 1.457031 -0.132812 1.1875 -0.363281 0.96875 -0.65625 C 0.757812 -0.945312 0.597656 -1.28125 0.484375 -1.65625 C 0.367188 -2.039062 0.3125 -2.445312 0.3125 -2.875 C 0.3125 -3.320312 0.367188 -3.738281 0.484375 -4.125 C 0.609375 -4.519531 0.78125 -4.859375 1 -5.140625 C 1.21875 -5.421875 1.484375 -5.640625 1.796875 -5.796875 C 2.109375 -5.960938 2.460938 -6.046875 2.859375 -6.046875 Z M 2.859375 -6.046875 "/></g></g></g><g fill="#ffffff" fill-opacity="1"><g transform="translate(251.140463, 245.679476)"><g/></g></g></svg>